HIERARCHY
ROOT root
{
	OFFSET	0	13.1	24.9
	CHANNELS 6  Xposition Yposition Zposition Xrotation Yrotation Zrotation
	JOINT spine_1
	{
		OFFSET	0	9.99999	0
		CHANNELS 3  Xrotation Yrotation Zrotation
		JOINT spine_2
		{
			OFFSET	0	112	-10
			CHANNELS 3  Xrotation Yrotation Zrotation
			JOINT spine_3
			{
				OFFSET	0	206.5	19.3
				CHANNELS 3  Xrotation Yrotation Zrotation
				JOINT spine_4
				{
					OFFSET	0	110.4	14.6
					CHANNELS 3  Xrotation Yrotation Zrotation
					JOINT neck_1
					{
						OFFSET	0	71.8	-50.3
						CHANNELS 3  Xrotation Yrotation Zrotation
						JOINT neck_2
						{
							OFFSET	0	86.2	-25.8
							CHANNELS 3  Xrotation Yrotation Zrotation
							JOINT head_ee
							{
								OFFSET	0	179.8	-8.7
								CHANNELS 3  Xrotation Yrotation Zrotation
								End Site
								{
									OFFSET	1	0	0
								}
							}
						}
					}
					JOINT left_clavicle
					{
						OFFSET	-43.2	22.4	-70.8
						CHANNELS 3  Xrotation Yrotation Zrotation
						JOINT left_shoulder
						{
							OFFSET	-93.9	-5.79999	48.7
							CHANNELS 3  Xrotation Yrotation Zrotation
							JOINT left_elbow
							{
								OFFSET	-291.4	-30.8	15.2
								CHANNELS 3  Xrotation Yrotation Zrotation
								JOINT left_lowarm_twist
								{
									OFFSET	-110.7	-3.89999	13.6
									CHANNELS 3  Xrotation Yrotation Zrotation
									JOINT left_hand
									{
										OFFSET	-110.7	-3.89999	13.6
										CHANNELS 3  Xrotation Yrotation Zrotation
										JOINT left_ee
										{
											OFFSET	-80.8	-5.10001	12.1
											CHANNELS 3  Xrotation Yrotation Zrotation
											End Site
											{
												OFFSET	1	0	0
											}
										}
									}
								}
							}
						}
					}
					JOINT right_clavicle
					{
						OFFSET	43.2	22.4	-70.8
						CHANNELS 3  Xrotation Yrotation Zrotation
						JOINT right_shoulder
						{
							OFFSET	93.9	-5.79999	48.7
							CHANNELS 3  Xrotation Yrotation Zrotation
							JOINT right_elbow
							{
								OFFSET	291.4	-30.8	15.2
								CHANNELS 3  Xrotation Yrotation Zrotation
								JOINT right_lowarm_twist
								{
									OFFSET	110.7	-3.89999	13.6
									CHANNELS 3  Xrotation Yrotation Zrotation
									JOINT right_hand
									{
										OFFSET	110.7	-3.89999	13.6
										CHANNELS 3  Xrotation Yrotation Zrotation
										JOINT right_ee
										{
											OFFSET	80.8	-5.10001	12.1
											CHANNELS 3  Xrotation Yrotation Zrotation
											End Site
											{
												OFFSET	1	0	0
											}
										}
									}
								}
							}
						}
					}
				}
			}
		}
	}
	JOINT left_hip
	{
		OFFSET	-82.8	-127.5	0.300001
		CHANNELS 3  Xrotation Yrotation Zrotation
		JOINT left_knee
		{
			OFFSET	-28.2	-396.7	2.2
			CHANNELS 3  Xrotation Yrotation Zrotation
			JOINT left_ankle
			{
				OFFSET	-11.7	-411.3	35.4
				CHANNELS 3  Xrotation Yrotation Zrotation
				JOINT left_toes
				{
					OFFSET	0	-60	-88.6
					CHANNELS 3  Xrotation Yrotation Zrotation
					JOINT left_foot_ee
					{
						OFFSET	-22.5	-16.5	-42.2
						CHANNELS 3  Xrotation Yrotation Zrotation
						End Site
						{
							OFFSET	1	0	0
						}
					}
				}
			}
		}
	}
	JOINT right_hip
	{
		OFFSET	82.8	-127.5	0.300001
		CHANNELS 3  Xrotation Yrotation Zrotation
		JOINT right_knee
		{
			OFFSET	28.2	-396.7	2.2
			CHANNELS 3  Xrotation Yrotation Zrotation
			JOINT right_ankle
			{
				OFFSET	11.7	-411.3	35.4
				CHANNELS 3  Xrotation Yrotation Zrotation
				JOINT right_toes
				{
					OFFSET	0	-60	-88.6
					CHANNELS 3  Xrotation Yrotation Zrotation
					JOINT right_foot_ee
					{
						OFFSET	22.5	-16.5	-42.2
						CHANNELS 3  Xrotation Yrotation Zrotation
						End Site
						{
							OFFSET	1	0	0
						}
					}
				}
			}
		}
	}
}
MOTION
Frames: 5
Frame Time: 0.02
1691.89 707.16 -1314.34 -1.81849 80.3125 2.55616 1.04129 -0.17251 0.242241 1.04131 -0.187575 0.230773 1.04054 -0.22847 0.190374 1.04054 -0.195537 0.224067 -10.8336 7.76058 2.17327 -10.8935 13.2216 4.15027 -0.0 0.0 -0.0 3.50657 7.25015 7.12794 9.93989 -35.289 64.5398 0.746012 -20.2819 0.133437 -50.3817 -4.11659 4.70272 0.237867 -0.304404 1.46148 -0.0 0.0 -0.0 8.03842 12.4455 -15.5055 -24.4569 30.7112 -61.5954 0.802542 21.6805 -0.153679 50.5065 1.00531 6.16695 2.52182 -0.757299 -17.4071 0.0 0.0 0.0 1.07179 -6.43788 2.67876 -3.05504 0.113676 0.455015 39.7299 -0.891437 -4.8598 -19.1742 0.0 0.0 -0.0 0.0 -0.0 10.6952 11.2793 3.38863 -57.2205 1.90745 -8.21216 19.6197 -27.5443 2.86215 -1.96344 0.0 0.0 0.0 0.0 0.0 
1682.31 707.562 -1312.33 2.10097 79.7104 -1.52916 0.872047 -0.190032 0.244848 0.872057 -0.205227 0.232259 0.871208 -0.246634 0.187708 0.871223 -0.213894 0.224303 -10.4053 8.25126 2.91957 -10.4515 13.6112 4.95178 -0.0 0.0 -0.0 3.488 6.09745 7.0432 10.544 -35.2382 63.5318 0.869984 -23.3141 0.179488 -49.6479 -4.03059 4.66436 -0.0598167 -1.6335 -1.09087 -0.0 0.0 -0.0 8.32028 11.4722 -16.1514 -26.9225 30.5397 -60.6772 0.734463 19.993 -0.129461 49.0715 0.903142 6.01423 2.62733 -2.53029 -18.8375 0.0 0.0 0.0 -0.673105 -4.04793 3.1597 -0.260016 0.0106192 0.038489 39.3052 0.938494 -4.80944 -20.5767 0.0 0.0 -0.0 0.0 -0.0 12.2689 11.4307 2.89336 -59.0154 2.09461 -8.41608 18.3882 -28.0588 2.70462 -2.64966 0.0 0.0 0.0 0.0 0.0 
1666.12 711.575 -1308.62 2.34945 78.4554 -2.01083 0.610643 -0.224535 0.207209 0.610635 -0.237265 0.192501 0.609816 -0.270938 0.141224 0.609872 -0.245234 0.182241 -10.5881 8.5069 3.21861 -10.6361 13.9148 5.32849 -0.0 0.0 -0.0 3.63608 6.62825 7.33518 11.0979 -34.9466 62.5067 0.989337 -26.1084 0.229398 -49.1701 -3.97485 4.6388 -0.521762 -1.62582 -4.1878 -0.0 0.0 -0.0 8.24954 10.199 -16.0408 -29.1762 30.4989 -59.9207 0.673873 18.4599 -0.109507 47.2119 0.776521 5.81265 2.47146 -3.91412 -18.2723 0.0 0.0 0.0 -3.73786 -3.69998 3.95873 1.88941 -0.0824033 -0.278205 40.3339 0.302729 -4.90236 -20.1169 0.0 0.0 -0.0 0.0 -0.0 18.669 11.2209 1.53098 -58.5772 2.04832 -8.36683 17.5294 -27.4075 2.57592 -3.10417 0.0 0.0 0.0 0.0 0.0 
1665.41 711.799 -1303.11 -1.75148 76.9737 1.75778 0.791389 0.0302571 0.115458 0.791396 0.0228489 0.117149 0.791446 -0.000634855 0.119355 0.791426 0.018223 0.117957 -11.6069 8.42804 2.72569 -11.6872 14.1966 4.95547 -0.0 0.0 -0.0 3.67595 7.14895 7.4283 12.5937 -34.9576 61.6612 1.16189 -29.9221 0.31049 -48.4581 -3.89219 4.59984 -1.13381 -0.238879 -7.69996 -0.0 0.0 -0.0 8.1478 9.33169 -15.8477 -30.9775 30.3855 -59.2985 0.627911 17.2783 -0.0954026 45.9285 0.69299 5.67122 2.45845 -6.32386 -19.0726 0.0 0.0 0.0 -2.68833 -0.917178 4.35859 2.93432 -0.13191 -0.430875 37.739 1.17445 -4.6683 -21.4731 0.0 0.0 -0.0 0.0 -0.0 20.2063 10.9404 0.401622 -52.1816 1.41743 -7.60995 18.9547 -26.6269 2.75652 -4.6807 0.0 0.0 0.0 0.0 0.0 
1656.49 712.954 -1305.15 -6.4683 75.9369 6.57808 0.907837 0.0705963 0.0368586 0.907835 0.0681078 0.0412761 0.907885 0.0587702 0.0537443 0.907887 0.0665206 0.0437881 -10.3361 8.72824 1.53861 -10.4164 15.4284 3.73359 -0.0 0.0 -0.0 3.92586 7.68947 7.89659 13.9245 -34.5901 60.8081 1.32079 -33.1944 0.393692 -47.5799 -3.79091 4.55038 -2.04743 2.77822 -12.4934 -0.0 0.0 -0.0 8.03955 8.05003 -15.6486 -32.3266 30.2318 -58.9633 0.538709 14.942 -0.0706453 44.2982 0.591502 5.48894 2.3585 -9.3802 -19.464 0.0 0.0 0.0 -1.97796 2.93861 4.66828 3.87972 -0.179099 -0.568224 35.9829 2.21303 -4.50003 -23.0586 0.0 0.0 -0.0 0.0 -0.0 22.1446 10.6192 -0.409072 -45.5397 0.856268 -6.75571 21.0609 -25.6232 3.01835 -5.76934 0.0 0.0 0.0 0.0 0.0 
